<svg width="20" height="20" viewBox="0 0 20 20" fill="none" xmlns="http://www.w3.org/2000/svg">
<path d="M10.0003 7.93366C9.59158 7.93366 9.19201 8.05487 8.85215 8.28195C8.51228 8.50904 8.24739 8.83181 8.09097 9.20945C7.93455 9.58708 7.89363 10.0026 7.97337 10.4035C8.05311 10.8044 8.24994 11.1726 8.53897 11.4617C8.828 11.7507 9.19624 11.9475 9.59714 12.0273C9.99803 12.107 10.4136 12.0661 10.7912 11.9097C11.1688 11.7533 11.4916 11.4884 11.7187 11.1485C11.9458 10.8086 12.067 10.4091 12.067 10.0003C12.067 9.72893 12.0135 9.46019 11.9097 9.20945C11.8058 8.95871 11.6536 8.73088 11.4617 8.53897C11.2698 8.34706 11.0419 8.19483 10.7912 8.09097C10.5405 7.98711 10.2717 7.93366 10.0003 7.93366ZM18.2753 5.89199C18.2709 5.24846 18.1524 4.6108 17.9253 4.00866C17.7581 3.56804 17.4993 3.1679 17.166 2.83465C16.8327 2.50139 16.4326 2.24259 15.992 2.07533C15.3898 1.84821 14.7522 1.72971 14.1087 1.72533C13.0337 1.66699 12.717 1.66699 10.0003 1.66699C7.28366 1.66699 6.96699 1.66699 5.89199 1.72533C5.24846 1.72971 4.6108 1.84821 4.00866 2.07533C3.56804 2.24259 3.1679 2.50139 2.83465 2.83465C2.50139 3.1679 2.24259 3.56804 2.07533 4.00866C1.84821 4.6108 1.72971 5.24846 1.72533 5.89199C1.66699 6.96699 1.66699 7.28366 1.66699 10.0003C1.66699 12.717 1.66699 13.0337 1.72533 14.1087C1.7343 14.7545 1.85264 15.3941 2.07533 16.0003C2.24185 16.4389 2.50043 16.8367 2.83366 17.167C3.16549 17.5022 3.56648 17.761 4.00866 17.9253C4.6108 18.1524 5.24846 18.2709 5.89199 18.2753C6.96699 18.3337 7.28366 18.3337 10.0003 18.3337C12.717 18.3337 13.0337 18.3337 14.1087 18.2753C14.7522 18.2709 15.3898 18.1524 15.992 17.9253C16.4342 17.761 16.8352 17.5022 17.167 17.167C17.5002 16.8367 17.7588 16.4389 17.9253 16.0003C18.1522 15.3952 18.2707 14.7549 18.2753 14.1087C18.3337 13.0337 18.3337 12.717 18.3337 10.0003C18.3337 7.28366 18.3337 6.96699 18.2753 5.89199ZM16.1587 12.5587C16.1319 13.0729 16.0222 13.5795 15.8337 14.0587C15.6719 14.4584 15.4314 14.8215 15.1264 15.1264C14.8215 15.4314 14.4584 15.6719 14.0587 15.8337C13.5749 16.0117 13.0655 16.1101 12.5503 16.1253C11.892 16.1253 11.717 16.1253 10.0003 16.1253C8.28366 16.1253 8.10866 16.1253 7.45032 16.1253C6.9351 16.1101 6.42573 16.0117 5.94199 15.8337C5.52874 15.6801 5.15556 15.4351 4.85033 15.117C4.54838 14.818 4.3152 14.4569 4.16699 14.0587C3.98829 13.5754 3.8925 13.0655 3.88366 12.5503C3.88366 11.892 3.88366 11.717 3.88366 10.0003C3.88366 8.28366 3.88366 8.10866 3.88366 7.45032C3.8925 6.93518 3.98829 6.42523 4.16699 5.94199C4.32056 5.52874 4.56555 5.15556 4.88366 4.85033C5.18394 4.55001 5.54471 4.31707 5.94199 4.16699C6.42573 3.989 6.9351 3.8905 7.45032 3.87533C8.10866 3.87533 8.28366 3.87533 10.0003 3.87533C11.717 3.87533 11.892 3.87533 12.5503 3.87533C13.0655 3.8905 13.5749 3.989 14.0587 4.16699C14.4719 4.32056 14.8451 4.56555 15.1503 4.88366C15.4523 5.18262 15.6855 5.54377 15.8337 5.94199C16.0117 6.42573 16.1101 6.9351 16.1253 7.45032C16.1253 8.10866 16.1253 8.28366 16.1253 10.0003C16.1253 11.717 16.1837 11.892 16.1587 12.5503V12.5587ZM14.8253 6.35866C14.7261 6.08948 14.5697 5.84503 14.3668 5.64217C14.164 5.43931 13.9195 5.28288 13.6503 5.18366C13.2807 5.05554 12.8914 4.99348 12.5003 5.00032C11.8503 5.00032 11.667 5.00032 10.0003 5.00032C8.33366 5.00032 8.15032 5.00032 7.50032 5.00032C7.10721 5.00417 6.71788 5.07752 6.35032 5.21699C6.08527 5.31171 5.8434 5.46175 5.64081 5.65716C5.43822 5.85257 5.27954 6.08886 5.17532 6.35032C5.05431 6.72146 4.99518 7.10999 5.00032 7.50032C5.00032 8.15032 5.00032 8.33366 5.00032 10.0003C5.00032 11.667 5.00032 11.8503 5.00032 12.5003C5.00859 12.893 5.0818 13.2816 5.21699 13.6503C5.31621 13.9195 5.47265 14.164 5.6755 14.3668C5.87836 14.5697 6.12281 14.7261 6.39199 14.8253C6.74755 14.9561 7.1217 15.0292 7.50032 15.042C8.15032 15.042 8.33366 15.042 10.0003 15.042C11.667 15.042 11.8503 15.042 12.5003 15.042C12.8934 15.0381 13.2828 14.9648 13.6503 14.8253C13.9195 14.7261 14.164 14.5697 14.3668 14.3668C14.5697 14.164 14.7261 13.9195 14.8253 13.6503C14.9648 13.2828 15.0381 12.8934 15.042 12.5003C15.042 11.8503 15.042 11.667 15.042 10.0003C15.042 8.33366 15.042 8.15032 15.042 7.50032C15.0422 7.10682 14.9687 6.71676 14.8253 6.35032V6.35866ZM10.0003 13.1837C9.58267 13.1837 9.16913 13.1013 8.78338 12.9412C8.39762 12.7811 8.04724 12.5465 7.75231 12.2508C7.45737 11.9551 7.22368 11.6041 7.06461 11.2179C6.90554 10.8317 6.82423 10.418 6.82532 10.0003C6.82533 9.37037 7.01224 8.75457 7.3624 8.2309C7.71256 7.70722 8.21022 7.29921 8.79238 7.05852C9.37455 6.81783 10.015 6.75528 10.6328 6.87878C11.2505 7.00229 11.8177 7.3063 12.2626 7.75233C12.7074 8.19836 13.0099 8.76636 13.1318 9.38441C13.2537 10.0025 13.1895 10.6428 12.9473 11.2243C12.7051 11.8058 12.2957 12.3024 11.7712 12.6512C11.2466 13 10.6303 13.1853 10.0003 13.1837ZM13.3337 7.44199C13.1494 7.42249 12.979 7.33551 12.8551 7.1978C12.7312 7.06009 12.6626 6.8814 12.6626 6.69616C12.6626 6.51091 12.7312 6.33222 12.8551 6.19452C12.979 6.05681 13.1494 5.96982 13.3337 5.95032C13.5179 5.96982 13.6884 6.05681 13.8123 6.19452C13.9362 6.33222 14.0047 6.51091 14.0047 6.69616C14.0047 6.8814 13.9362 7.06009 13.8123 7.1978C13.6884 7.33551 13.5179 7.42249 13.3337 7.44199Z" fill="white"/>
</svg>
