<svg width="40" height="40" viewBox="0 0 40 40" fill="none" xmlns="http://www.w3.org/2000/svg">
<path fill-rule="evenodd" clip-rule="evenodd" d="M31.6085 27.6834L29.6535 25.7284C28.6769 24.7518 27.0935 24.7518 26.1185 25.7284L24.5819 27.2651C24.2385 27.6084 23.7185 27.7234 23.2752 27.5284C21.0485 26.5534 18.8485 25.0751 16.8869 23.1134C14.9335 21.1601 13.4602 18.9701 12.4835 16.7518C12.2802 16.2934 12.3985 15.7551 12.7535 15.4001L14.1302 14.0234C15.2485 12.9051 15.2485 11.3234 14.2719 10.3468L12.3169 8.39178C11.0152 7.09011 8.9052 7.09011 7.60354 8.39178L6.51687 9.47678C5.28187 10.7118 4.76687 12.4934 5.1002 14.2601C5.92354 18.6151 8.45354 23.3834 12.5352 27.4651C16.6169 31.5468 21.3852 34.0768 25.7402 34.9001C27.5069 35.2334 29.2885 34.7184 30.5235 33.4834L31.6085 32.3984C32.9102 31.0968 32.9102 28.9868 31.6085 27.6834V27.6834Z" stroke="#091019" stroke-width="1.5" stroke-linecap="round" stroke-linejoin="round"/>
<path d="M21.6665 11.6515C23.3848 11.6282 25.1115 12.2648 26.4232 13.5765" stroke="#091019" stroke-width="1.5" stroke-linecap="round" stroke-linejoin="round"/>
<path d="M31.1365 8.86328C28.5215 6.24827 25.0932 4.93994 21.6665 4.93994" stroke="#091019" stroke-width="1.5" stroke-linecap="round" stroke-linejoin="round"/>
<path d="M28.3483 18.3333C28.3717 16.615 27.735 14.8883 26.4233 13.5767" stroke="#091019" stroke-width="1.5" stroke-linecap="round" stroke-linejoin="round"/>
<path d="M31.1367 8.86328C33.7517 11.4783 35.0601 14.9066 35.0601 18.3333" stroke="#091019" stroke-width="1.5" stroke-linecap="round" stroke-linejoin="round"/>
</svg>
