<svg width="20" height="20" viewBox="0 0 20 20" fill="none" xmlns="http://www.w3.org/2000/svg">
<path d="M18.3109 5.56765C18.3098 5.26748 18.2823 4.96798 18.2286 4.67265C18.1686 4.31162 18.0547 3.96167 17.8905 3.6346C17.7108 3.29088 17.4767 2.97842 17.1974 2.7093C16.7756 2.29636 16.2545 1.99902 15.6843 1.84591C15.1608 1.719 14.6228 1.66161 14.0843 1.67522L14.0812 1.66699H5.91564L5.91518 1.67523C5.60887 1.67283 5.30265 1.68653 4.99777 1.71628C4.66369 1.75189 4.33482 1.82593 4.0177 1.93692C3.4952 2.13395 3.02653 2.45141 2.64973 2.86354C2.27293 3.27566 1.99862 3.77083 1.84907 4.30885C1.72307 4.82817 1.66568 5.36178 1.67837 5.89602L1.67288 14.0945C1.67184 14.4657 1.69706 14.8373 1.74837 15.205C1.80409 15.5941 1.91911 15.9723 2.0894 16.3264C2.32959 16.7992 2.67159 17.2128 3.09078 17.5375C3.39021 17.7761 3.72941 17.96 4.09277 18.0806C4.6262 18.2455 5.18186 18.3272 5.74017 18.3227C6.08964 18.3249 6.43887 18.3336 6.7885 18.3322C9.32737 18.3215 11.8663 18.3505 14.4052 18.3165C14.7406 18.3091 15.0748 18.2736 15.4042 18.2103C16.027 18.1007 16.6066 17.8188 17.0773 17.3965C17.6317 16.9145 18.0187 16.269 18.1826 15.5529C18.2837 15.0734 18.3319 14.5843 18.3266 14.0944V13.9967C18.3266 13.9589 18.3122 5.67715 18.3109 5.56765ZM16.0808 13.2758C15.9742 13.5253 15.4358 13.7322 14.5242 13.873C14.4386 13.8862 14.4026 14.0245 14.3533 14.2509C14.3329 14.3443 14.3122 14.436 14.2838 14.5323C14.2753 14.5729 14.2523 14.609 14.2191 14.6338C14.1859 14.6586 14.1448 14.6705 14.1035 14.6672H14.0892C14.002 14.664 13.9152 14.6531 13.8299 14.6344C13.605 14.5873 13.376 14.5631 13.1462 14.562C12.981 14.5624 12.8161 14.5764 12.6532 14.6037C12.3094 14.6907 11.9896 14.8541 11.7175 15.0816C11.2575 15.4743 10.6795 15.7021 10.0753 15.7289C10.0407 15.7289 10.0077 15.7277 9.98262 15.7264C9.96268 15.7282 9.94213 15.7289 9.92153 15.7289C9.31764 15.7023 8.73997 15.4746 8.2803 15.0821C8.00793 14.8543 7.6878 14.6908 7.34363 14.6035C7.18074 14.5762 7.01589 14.5623 6.85073 14.5619C6.62082 14.5643 6.39177 14.5902 6.16713 14.6392C6.08193 14.6591 5.99518 14.6715 5.90783 14.6764C5.86384 14.6815 5.81954 14.67 5.78355 14.6441C5.74756 14.6183 5.72245 14.5801 5.71308 14.5368C5.68434 14.4392 5.66374 14.3446 5.64386 14.2535C5.59412 14.026 5.55803 13.8871 5.47286 13.8739C4.56142 13.7333 4.02294 13.5262 3.91572 13.2753C3.90479 13.2503 3.89838 13.2235 3.8968 13.1962C3.89478 13.1601 3.90615 13.1246 3.92873 13.0964C3.95131 13.0683 3.98351 13.0494 4.01912 13.0436C4.77284 12.9071 5.452 12.5032 5.93192 11.9062C6.19608 11.6006 6.41573 11.2592 6.58433 10.8921L6.58767 10.885C6.63732 10.8038 6.66862 10.7126 6.67939 10.618C6.69016 10.5234 6.68014 10.4276 6.65003 10.3372C6.53258 10.0603 6.14368 9.93692 5.88637 9.85528C5.82238 9.83504 5.76186 9.81587 5.71364 9.79669C5.48552 9.70661 5.11041 9.51623 5.16036 9.25347C5.19863 9.15449 5.26688 9.06995 5.35557 9.01168C5.44426 8.9534 5.54895 8.92431 5.65499 8.92848C5.70648 8.92732 5.75759 8.93753 5.80468 8.95837C5.99673 9.05677 6.20778 9.11249 6.42338 9.12171C6.55151 9.13087 6.67848 9.09207 6.77962 9.01286C6.77291 8.89125 6.76559 8.76967 6.75765 8.64813C6.64046 7.82668 6.69053 6.99002 6.90484 6.18841C7.15684 5.61304 7.57273 5.12464 8.10059 4.78418C8.62846 4.44373 9.24492 4.2663 9.87301 4.27406L10.1186 4.27177C10.7476 4.26375 11.365 4.44114 11.8938 4.7818C12.4226 5.12247 12.8394 5.61132 13.0921 6.18736C13.3064 6.9897 13.3564 7.82707 13.2391 8.64921L13.2366 8.68903C13.2294 8.80205 13.2228 8.90903 13.2172 9.01273C13.309 9.08536 13.4233 9.12361 13.5404 9.12086C13.7434 9.10556 13.9415 9.05039 14.1232 8.95851C14.1834 8.93241 14.2485 8.91949 14.3141 8.92062C14.3886 8.92036 14.4624 8.93448 14.5316 8.96222L14.535 8.96354C14.6132 8.98213 14.6841 9.02363 14.7386 9.08272C14.7931 9.14181 14.8287 9.21581 14.841 9.29527C14.8432 9.42257 14.7486 9.61291 14.2832 9.79677C14.2355 9.81564 14.1747 9.83492 14.1104 9.85532C13.8529 9.93705 13.4643 10.0604 13.3469 10.3371C13.3167 10.4274 13.3067 10.5233 13.3174 10.6179C13.3282 10.7125 13.3595 10.8036 13.4092 10.8848L13.4126 10.892C13.6455 11.424 13.9982 11.895 14.4432 12.2682C14.8881 12.6414 15.4134 12.9067 15.9778 13.0434C16.0134 13.0493 16.0456 13.0682 16.0682 13.0963C16.0907 13.1245 16.1021 13.16 16.1001 13.196C16.0984 13.2236 16.0919 13.2506 16.0808 13.2758Z" fill="white"/>
</svg>
