<svg width="20" height="20" viewBox="0 0 20 20" fill="none" xmlns="http://www.w3.org/2000/svg">
<g clip-path="url(#clip0_17396_2314)">
<path fill-rule="evenodd" clip-rule="evenodd" d="M13.8266 0.0167969C13.8278 0.321875 13.9168 4.73086 18.5438 5.00586C18.5438 6.27734 18.5454 7.19922 18.5454 8.4125C18.195 8.43281 15.4993 8.23711 13.8215 6.74062L13.8165 13.3727C13.8801 17.9758 10.4926 20.777 6.0649 19.8094C-1.57026 17.5254 0.96685 6.20117 8.63326 7.41328C8.63326 11.0691 8.63521 7.41211 8.63521 11.0691C5.46802 10.6031 4.40865 13.2379 5.25044 15.1242C6.01607 16.8418 9.16958 17.2141 10.2696 14.791C10.3942 14.3168 10.4563 13.7762 10.4563 13.1691V0L13.8266 0.0167969Z" fill="white"/>
</g>
<defs>
<clipPath id="clip0_17396_2314">
<rect width="20" height="20" fill="white"/>
</clipPath>
</defs>
</svg>
