<svg xmlns="http://www.w3.org/2000/svg" width="20" height="20" fill="none"><path fill="#073F45" d="M18.31 5.568q0-.451-.081-.895a3.7 3.7 0 0 0-.338-1.038 3.6 3.6 0 0 0-.694-.926 3.44 3.44 0 0 0-1.513-.863 6.1 6.1 0 0 0-1.6-.17l-.003-.009H5.916v.008a9 9 0 0 0-.918.041q-.503.054-.98.22A3.55 3.55 0 0 0 1.849 4.31a6.1 6.1 0 0 0-.17 1.587l-.006 8.199a8 8 0 0 0 .075 1.11c.056.39.171.767.341 1.121.24.473.583.887 1.002 1.212.3.238.638.422 1.002.543a5.4 5.4 0 0 0 1.647.242c.35.002.699.01 1.048.01 2.54-.011 5.078.018 7.617-.016q.505-.011 1-.107a3.4 3.4 0 0 0 1.672-.814 3.47 3.47 0 0 0 1.106-1.843q.15-.722.144-1.459v-.097zm-2.23 7.708c-.106.25-.644.456-1.556.597-.085.013-.121.152-.17.378q-.03.138-.07.281a.17.17 0 0 1-.18.135h-.015a1.5 1.5 0 0 1-.26-.033 3.4 3.4 0 0 0-.683-.072q-.248 0-.493.042c-.344.087-.663.25-.936.478-.46.392-1.037.62-1.642.647l-.092-.003-.061.003a2.7 2.7 0 0 1-1.642-.647 2.4 2.4 0 0 0-.936-.479 3 3 0 0 0-1.177.036q-.128.03-.26.037a.18.18 0 0 1-.194-.14q-.042-.145-.07-.282c-.049-.228-.085-.367-.17-.38-.912-.14-1.45-.348-1.557-.599a.2.2 0 0 1-.02-.079.146.146 0 0 1 .123-.152 3.18 3.18 0 0 0 1.913-1.138c.264-.305.484-.647.652-1.014l.004-.007a.65.65 0 0 0 .062-.548c-.117-.277-.506-.4-.764-.482a3 3 0 0 1-.172-.058c-.228-.09-.604-.28-.554-.544a.51.51 0 0 1 .645-.295c.192.099.403.154.618.164.129.009.255-.03.357-.11l-.022-.364a6.2 6.2 0 0 1 .147-2.46 3.2 3.2 0 0 1 2.968-1.914l.246-.002a3.2 3.2 0 0 1 2.973 1.915c.214.803.264 1.64.147 2.462l-.002.04q-.011.169-.02.324c.092.072.206.11.323.108a1.6 1.6 0 0 0 .583-.162.5.5 0 0 1 .191-.038q.113 0 .218.041l.003.002a.4.4 0 0 1 .306.331c.002.128-.092.318-.558.502-.047.019-.108.038-.173.058-.257.082-.646.205-.763.482a.65.65 0 0 0 .062.548l.004.007a3.77 3.77 0 0 0 2.565 2.151.15.15 0 0 1 .122.153.2.2 0 0 1-.02.08"/></svg>