<svg xmlns="http://www.w3.org/2000/svg" width="20" height="20" fill="none"><g clip-path="url(#a)"><path fill="#073F45" fill-rule="evenodd" d="M13.827.017c0 .305.09 4.714 4.717 4.989l.001 3.406c-.35.02-3.046-.175-4.724-1.671l-.005 6.632c.064 4.603-3.323 7.404-7.751 6.436C-1.57 17.525.967 6.201 8.633 7.413c0 3.656.002 0 .002 3.656-3.167-.466-4.226 2.169-3.385 4.055.766 1.718 3.92 2.09 5.02-.333a6.4 6.4 0 0 0 .186-1.622V0z" clip-rule="evenodd"/></g><defs><clipPath id="a"><path fill="#fff" d="M0 0h20v20H0z"/></clipPath></defs></svg>