<svg xmlns="http://www.w3.org/2000/svg" width="20" height="20" fill="none"><path fill="#073F45" d="M10 7.934a2.067 2.067 0 1 0 0 4.133 2.067 2.067 0 0 0 0-4.133m8.275-2.042a5.4 5.4 0 0 0-.35-1.883 3.33 3.33 0 0 0-1.933-1.934 5.4 5.4 0 0 0-1.883-.35c-1.075-.058-1.392-.058-4.109-.058s-3.033 0-4.108.058a5.4 5.4 0 0 0-1.883.35A3.33 3.33 0 0 0 2.075 4.01a5.4 5.4 0 0 0-.35 1.883C1.667 6.967 1.667 7.284 1.667 10c0 2.717 0 3.034.058 4.109.01.646.128 1.285.35 1.891.167.439.425.837.759 1.167.331.335.732.594 1.175.758.602.227 1.24.346 1.883.35 1.075.059 1.392.059 4.108.059 2.717 0 3.034 0 4.109-.059a5.4 5.4 0 0 0 1.883-.35 3.24 3.24 0 0 0 1.175-.758c.333-.33.592-.728.758-1.167a5.5 5.5 0 0 0 .35-1.891c.059-1.075.059-1.392.059-4.109s0-3.033-.059-4.108m-2.116 6.667a4.8 4.8 0 0 1-.325 1.5 3.22 3.22 0 0 1-1.775 1.775 4.8 4.8 0 0 1-1.509.291h-5.1a4.8 4.8 0 0 1-1.508-.291 2.9 2.9 0 0 1-1.092-.717 2.9 2.9 0 0 1-.683-1.058 4.6 4.6 0 0 1-.283-1.509v-5.1a4.6 4.6 0 0 1 .283-1.508c.154-.413.399-.786.717-1.092.3-.3.66-.533 1.058-.683a4.8 4.8 0 0 1 1.508-.292h5.1a4.8 4.8 0 0 1 1.509.292c.413.154.786.399 1.091.717.302.299.535.66.684 1.058.178.484.276.993.291 1.508V10c0 1.717.059 1.892.034 2.55zm-1.334-6.2a1.98 1.98 0 0 0-1.175-1.175A3.3 3.3 0 0 0 12.5 5h-5a3.3 3.3 0 0 0-1.15.217A1.98 1.98 0 0 0 5.175 6.35c-.12.371-.18.76-.175 1.15v5c.009.393.082.782.217 1.15a1.98 1.98 0 0 0 1.175 1.175c.356.131.73.204 1.108.217h5a3.3 3.3 0 0 0 1.15-.217 1.98 1.98 0 0 0 1.175-1.175c.14-.367.213-.757.217-1.15v-5c0-.393-.073-.783-.217-1.15zM10 13.184A3.175 3.175 0 0 1 6.825 10 3.183 3.183 0 1 1 10 13.184m3.334-5.742a.75.75 0 0 1 0-1.492.75.75 0 0 1 0 1.492"/></svg>