<svg xmlns="http://www.w3.org/2000/svg" width="20" height="20" fill="none"><path fill="#073F45" d="M19.167 8.092a7.1 7.1 0 0 0-.759-3.442 2.43 2.43 0 0 0-1.433-.833A65 65 0 0 0 10 3.559c-2.32-.04-4.64.043-6.95.25-.457.083-.88.297-1.216.616C1.084 5.117 1 6.3.917 7.3a40 40 0 0 0 0 5.4c.024.563.108 1.122.25 1.667.1.42.304.81.592 1.133.339.336.772.563 1.241.65a38 38 0 0 0 5.417.275c2.917.042 5.475 0 8.5-.233a2.4 2.4 0 0 0 1.275-.65c.233-.233.407-.52.508-.833a8.8 8.8 0 0 0 .434-2.834c.033-.466.033-3.283.033-3.783m-11.05 4.283V7.217l4.933 2.592c-1.383.766-3.208 1.633-4.933 2.566"/></svg>