<svg xmlns="http://www.w3.org/2000/svg" width="20" height="20" fill="none"><path stroke="#fff" stroke-linecap="round" stroke-linejoin="round" stroke-opacity=".8" stroke-width="1.5" d="M9.105 9.11a5.46 5.46 0 0 0 1.785 1.784l.685-.411a.83.83 0 0 1 .949.064l1.33 1.063a.833.833 0 0 1 .063 1.245l-.601.59a2.5 2.5 0 0 1-3.092.335A13.5 13.5 0 0 1 6.22 9.775a2.5 2.5 0 0 1 .333-3.092l.591-.6a.833.833 0 0 1 1.245.063l1.063 1.329c.218.272.243.65.064.95z" clip-rule="evenodd"/><path stroke="#fff" stroke-linecap="round" stroke-linejoin="round" stroke-opacity=".8" stroke-width="1.5" d="m5.722 16.655-2.247.376a.44.44 0 0 1-.507-.507l.376-2.247a7.931 7.931 0 1 1 2.378 2.378" clip-rule="evenodd"/></svg>